<?xml version="1.0" standalone="no"?>
<!DOCTYPE svg PUBLIC "-//W3C//DTD SVG 20010904//EN"
 "http://www.w3.org/TR/2001/REC-SVG-20010904/DTD/svg10.dtd">
<svg version="1.0" xmlns="http://www.w3.org/2000/svg"
 width="225.000000pt" height="225.000000pt" viewBox="0 0 225.000000 225.000000"
 preserveAspectRatio="xMidYMid meet">

<g transform="translate(0.000000,225.000000) scale(0.100000,-0.100000)"
fill="#000000" stroke="none">
<path d="M373 2235 c-18 -8 -42 -29 -53 -47 -20 -33 -20 -48 -20 -1062 0
-1014 0 -1029 20 -1061 41 -66 23 -65 805 -65 782 0 764 -1 805 65 20 32 20
47 20 897 l0 865 -195 212 -196 211 -577 0 c-473 -1 -583 -3 -609 -15z m1107
-272 c0 -236 -12 -223 202 -223 l158 0 -2 -812 -3 -813 -710 0 -710 0 -3 1000
c-1 550 0 1006 3 1013 3 9 120 12 535 12 l530 0 0 -177z m210 -18 l83 -90 -78
-3 c-43 -2 -84 -1 -92 2 -9 4 -13 30 -13 97 0 50 4 89 9 87 4 -1 46 -43 91
-93z"/>
<path d="M580 1610 c-8 -14 -8 -26 0 -40 11 -20 19 -20 527 -18 479 3 517 4
527 21 8 12 8 22 0 35 -10 16 -48 17 -527 20 -508 2 -516 2 -527 -18z"/>
<path d="M586 1324 c-19 -18 -19 -20 -6 -45 10 -18 27 -19 524 -19 449 0 515
2 526 15 10 12 10 21 2 40 l-12 25 -509 0 c-450 0 -511 -2 -525 -16z"/>
<path d="M586 1044 c-19 -18 -19 -20 -6 -45 10 -18 27 -19 523 -19 522 0 537
1 537 36 0 7 -7 20 -16 28 -14 14 -75 16 -519 16 -444 0 -505 -2 -519 -16z"/>
<path d="M580 750 c-8 -14 -8 -26 0 -40 11 -20 19 -20 527 -18 479 3 517 4
527 21 8 12 8 22 0 35 -10 16 -48 17 -527 20 -508 2 -516 2 -527 -18z"/>
</g>
</svg>
