<?xml version="1.0" standalone="no"?>
<!DOCTYPE svg PUBLIC "-//W3C//DTD SVG 20010904//EN"
 "http://www.w3.org/TR/2001/REC-SVG-20010904/DTD/svg10.dtd">
<svg version="1.0" xmlns="http://www.w3.org/2000/svg"
 width="225.000000pt" height="225.000000pt" viewBox="0 0 225.000000 225.000000"
 preserveAspectRatio="xMidYMid meet">

<g transform="translate(0.000000,225.000000) scale(0.100000,-0.100000)"
fill="#000000" stroke="none">
<path d="M1040 2239 c-128 -22 -267 -122 -329 -238 -59 -111 -61 -132 -61
-611 0 -391 2 -442 18 -501 23 -83 62 -150 121 -209 257 -256 696 -141 793
209 16 59 18 110 18 501 0 359 -3 446 -15 495 -48 184 -201 325 -385 354 -74
12 -84 12 -160 0z m235 -168 c70 -35 121 -87 157 -160 23 -45 23 -52 26 -502
3 -449 2 -457 -19 -515 -30 -80 -113 -163 -192 -192 -77 -29 -167 -29 -244 0
-79 29 -162 112 -191 191 -21 56 -22 71 -22 496 0 486 1 497 65 583 97 132
271 172 420 99z"/>
<path d="M447 922 c-12 -13 -17 -37 -17 -78 1 -218 173 -447 389 -515 36 -11
104 -24 151 -27 l85 -7 3 -77 3 -78 -186 0 c-172 0 -186 -1 -205 -20 -29 -29
-26 -74 6 -99 26 -20 37 -21 449 -21 412 0 423 1 449 21 32 25 35 70 6 99 -19
19 -33 20 -205 20 l-186 0 3 78 3 77 85 7 c47 3 115 16 151 27 216 68 388 296
389 517 0 70 -17 94 -67 94 -37 0 -63 -27 -63 -66 0 -48 -28 -151 -56 -206
-37 -73 -117 -149 -199 -189 l-70 -34 -240 0 -240 0 -70 34 c-82 40 -162 116
-199 189 -28 56 -56 158 -56 208 0 17 -8 38 -18 47 -25 22 -75 21 -95 -1z"/>
</g>
</svg>
