<?xml version="1.0" encoding="UTF-8"?>
<svg xmlns="http://www.w3.org/2000/svg" viewBox="0 0 1080 1080">
  <defs>
    <style>
      .cls-1 {
        fill: #111827;
      }

      .cls-2 {
        fill: #05f29b;
      }
    </style>
  </defs>
  <g id="Fond">
    <rect class="cls-1" x="0" y="0" width="1080" height="1080"/>
  </g>
  <g id="Logo">
    <g id="Vert_bleu" data-name="Vert/bleu">
      <g>
        <polygon class="cls-2" points="581.21 642.68 531.98 642.68 453.42 808.33 490.33 808.33 506.43 772.36 520.63 741.12 551.86 671.55 558.49 741.12 561.57 772.36 565.11 808.33 601.56 808.33 581.21 642.68"/>
        <path class="cls-2" d="m765.32,675.81l-7.1,39.99c-3.31,18.69-12.54,29.34-28.16,32.18l17.04,60.34h-35.02l-16.57-58.45h-27.69l-10.41,58.45h-34.08l29.11-165.65h86.14c22.01,0,30.53,10.65,26.74,33.13Zm-38.1-2.37h-45.91l-8.28,46.15h45.91c3.31,0,4.73-1.18,5.44-4.73l6.39-36.68c.71-3.55-.24-4.73-3.55-4.73Z"/>
        <path class="cls-2" d="m803.42,642.68h109.57l-5.44,31.24h-75.49l-5.92,34.31h61.05l-5.44,30.76h-61.05l-6.86,38.1h75.49l-5.44,31.24h-109.57l29.11-165.65Z"/>
        <path class="cls-2" d="m912.27,775.2l3.55-20.82h33.13l-3.31,18.46c-.47,3.55.47,4.73,4.02,4.73h42.12c3.55,0,4.97-1.18,5.44-4.73l3.55-19.88c1.18-6.15-.71-7.57-6.39-8.99l-41.41-9.47c-19.64-4.5-31-11.36-27.21-33.13l4.5-25.56c3.79-22.48,16.09-33.13,38.1-33.13h50.64c22.01,0,30.53,10.65,26.74,33.13l-3.31,18.93h-33.13l2.84-16.57c.71-3.55-.24-4.73-3.79-4.73h-39.05c-3.31,0-4.73,1.18-5.44,4.73l-3.08,17.99c-.95,6.15.47,7.81,6.15,8.99l41.65,9.47c19.64,4.5,31,11.36,27.21,33.13l-4.73,27.45c-4.02,22.48-16.33,33.13-38.34,33.13h-53.96c-22.01,0-30.53-10.65-26.5-33.13Z"/>
      </g>
      <g>
        <path class="cls-2" d="m554.66,361.84c0,190.79-103.64,357.37-257.73,446.49-54.25-31.38-102.25-72.37-141.68-120.64-6.13-7.5-12.05-15.18-17.74-23.02-61.83-85.01-98.29-189.67-98.29-302.83,58.36-20.26,149.56-44.23,262.94-43.47,61.86.41,116.9,8.09,163.36,18.3,11.46,2.52,22.41,5.19,32.8,7.96,21.11,5.59,39.97,11.53,56.34,17.22Z"/>
        <path class="cls-1" d="m409.65,666.59s19.49-122.22,36.51-176.64l-25.8,8.92s-34.79-65.13-125.79-65.13c-91,0-105.27,92.78-105.27,116.42,0,23.64-26.76,42.38-26.76,42.38h49.07s37.47,2.68,37.47,36.58c0,18.73-16.95,32.12-16.95,32.12,0,0,68.38,83.58,113.88,109.46,0,0,9.24-120.16,24.4-167.44l-34.79-30.33-4.46-43.71,69.59,50.85s-2.68,57.1,8.92,86.54Z"/>
        <path class="cls-1" d="m26.03,602.36s96.35,7.14,136.5-116.87c44.61-107.95,157.91-91.89,157.91-91.89,0,0,66.46,1.34,121.33,56.2l136.5-100.81s-28.55-29.44-88.32-16.95c0,0,11.6-20.52,28.55-21.41s-127.28-64.53-205.78-20.52c2.58-10.31,10.51-18.44,10.51-18.44,0,0-104.48,1.59-149.28,94.37,0,0-11.5-4.36-5.95-19.83,5.55-15.46-65.82,83.66-56.7,163.76l-11.1-10.71s-21.41,75.34-74.15,103.09Z"/>
      </g>
    </g>
  </g>
</svg>